<svg xmlns="http://www.w3.org/2000/svg" width="800" height="800" viewBox="0 0 48 48">
  <path fill="#fbc02d" d="M43.6 20.5H42V20H24v8h11.3C33.6 32.3 29.3 35 24 35c-6.1 0-11-4.9-11-11s4.9-11 11-11c2.8 0 5.4 1 7.4 2.9l5.7-5.7C33.9 7.1 29.2 5 24 5 12.4 5 3 14.4 3 26s9.4 21 21 21 21-9.4 21-21c0-1.9-.2-3.4-.4-5.5z"/>
  <path fill="#e53935" d="M6.3 14.7l6.6 4.8C14.4 16 18.8 13 24 13c2.8 0 5.4 1 7.4 2.9l5.7-5.7C33.9 7.1 29.2 5 24 5c-6.8 0-12.6 3.4-16.4 8.7z"/>
  <path fill="#4caf50" d="M24 47c5.1 0 9.8-1.8 13.4-4.7l-6.2-5.2c-2 1.5-4.6 2.4-7.2 2.4-5.3 0-9.7-2.7-11.9-6.7l-6.4 5c3.8 5.2 9.8 8.2 16.3 8.2z"/>
  <path fill="#1565c0" d="M43.6 20.5H42V20H24v8h11.3c-1.1 3.4-3.7 6.1-7.3 7.3l6.2 5.2C37.7 38.3 43 32.8 43 26c0-1.9-.2-3.4-.4-5.5z"/>
</svg>
